<svg width="450" height="200" viewBox="0 0 450 200" fill="none" xmlns="http://www.w3.org/2000/svg">
<g clip-path="url(#clip0_3_14)">
<circle cx="86.5" cy="111.5" r="72.5" fill="black"/>
<rect x="87" y="39" width="260" height="145" fill="black"/>
<path d="M364.11 117.292C360.887 114.5 360.887 109.5 364.11 106.708L421.417 57.0789C425.951 53.1528 433 56.3731 433 62.3704V161.63C433 167.627 425.951 170.847 421.417 166.921L364.11 117.292Z" fill="black"/>
<path d="M425 111.5L347 183.813V39.1869L425 111.5Z" fill="black"/>
<path d="M162 9L179.321 39H144.679L162 9Z" fill="black"/>
<rect x="162" y="9" width="55" height="30" fill="black"/>
<path d="M217 9L225.66 39H208.34L217 9Z" fill="black"/>
<path d="M111 155H98.1875C97.5208 155 97.1875 154.708 97.1875 154.125L97.0625 66.9375C97.0625 66.2708 97.3958 65.9375 98.0625 65.9375H109.625L131.25 116.375L130.625 66.9375C130.625 66.2708 131 65.9375 131.75 65.9375H144.438C144.938 65.9375 145.188 66.2708 145.188 66.9375L145.312 154.25C145.312 154.75 145.104 155 144.688 155H133.438L111.25 107.875L112.188 154C112.188 154.667 111.792 155 111 155ZM157.245 154.375L173.12 66.4375C173.203 66.1042 173.412 65.9375 173.745 65.9375H192.308C192.641 65.9375 192.849 66.1042 192.933 66.4375L208.183 154.375C208.224 154.792 208.058 155 207.683 155H193.495C193.078 155 192.849 154.792 192.808 154.375L191.433 145H173.995L172.62 154.375C172.578 154.792 172.37 155 171.995 155H157.745C157.412 155 157.245 154.792 157.245 154.375ZM182.308 95.375L176.558 131.312H188.87L183.62 95.375L182.87 90.625L182.308 95.375ZM242.24 156.25C237.74 156.25 233.573 155.083 229.74 152.75C225.907 150.417 222.844 147.292 220.552 143.375C218.302 139.417 217.177 135.104 217.177 130.438L217.427 66.4375C217.427 66.1042 217.594 65.9375 217.927 65.9375H232.302C232.636 65.9375 232.802 66.1042 232.802 66.4375V130.438C232.802 133.312 233.719 135.771 235.552 137.812C237.386 139.812 239.615 140.812 242.24 140.812C244.99 140.812 247.282 139.812 249.115 137.812C250.948 135.771 251.865 133.312 251.865 130.438V66.4375C251.865 66.1042 252.032 65.9375 252.365 65.9375H266.74C267.073 65.9375 267.24 66.1042 267.24 66.4375L267.49 130.438C267.49 135.146 266.365 139.479 264.115 143.438C261.823 147.354 258.782 150.479 254.99 152.812C251.198 155.104 246.948 156.25 242.24 156.25ZM309.985 155H295.548C295.173 155 294.985 154.792 294.985 154.375V81.375H278.36C277.943 81.375 277.735 81.1667 277.735 80.75L277.86 66.4375C277.86 66.1042 278.027 65.9375 278.36 65.9375H326.985C327.443 65.9375 327.673 66.1042 327.673 66.4375V80.75C327.673 81.1667 327.506 81.375 327.173 81.375H310.36L310.485 154.375C310.485 154.792 310.318 155 309.985 155Z" fill="white"/>
</g>
<defs>
<clipPath id="clip0_3_14">
<rect width="450" height="200" fill="white"/>
</clipPath>
</defs>
</svg>
